# xmcd CD database file
#
# Track frame offsets:
#	150
#	13235
#	28990
#	45487
#	59915
#	73747
#	89635
#	103805
#	116572
#	128945
#	141622
#	155632
#	166717
#	185055
#	202122
#	219392
#	234080
#	254602
#	269632
#	288147
#	300712
#
# Disc length: 4187 seconds
#
# Revision: 0
# Processed by: cddbd v1.5.2PL0 Copyright (c) Steve Scherf et al.
# Submitted via: CDex 1.70beta2
#
DISCID=51105915
DTITLE=Jones Classic Country - Jones Classic Country CCC-624
DYEAR=0000
DGENRE=Country
TTITLE0=Earl Thomas Conley/Chance Of Lovin' You
TTITLE1=Earl Thomas Conley/Don't Make It Easy For Me
TTITLE2=Earl Thomas Conley and Emmylou Harris/We Believe In Happy Endings
TTITLE3=Merle Haggard/Branded Man
TTITLE4=Merle Haggard/Cherokee Maiden
TTITLE5=Merle Haggard/Someday When Things Are Good
TTITLE6=Merle Haggard/That's The Way Love Goes
TTITLE7=Merle Haggard/You Take Me For Granted
TTITLE8=Johnny Lee/Bet Your Heart On Me
TTITLE9=Johnny Lee/Hey Bartender
TTITLE10=Johnny Lee/Prisoner Of Hope
TTITLE11=Conway Twitty/Boogie Grass Band
TTITLE12=Conway Twitty/Clown
TTITLE13=Conway Twitty/Don't Take It Away
TTITLE14=Conway Twitty/Julia
TTITLE15=Conway Twitty/Lost In The Feeling
TTITLE16=Conway Twitty/Rest Your Love On Me
TTITLE17=Steve Wariner/I Got Dreams
TTITLE18=Steve Wariner/You Can Dream Of Me
TTITLE19=Don Williams/Nobody But You
TTITLE20=Don Williams/Say It Again
EXTD=YEAR: 0000
EXTT0=
EXTT1=
EXTT2=
EXTT3=
EXTT4=
EXTT5=
EXTT6=
EXTT7=
EXTT8=
EXTT9=
EXTT10=
EXTT11=
EXTT12=
EXTT13=
EXTT14=
EXTT15=
EXTT16=
EXTT17=
EXTT18=
EXTT19=
EXTT20=
PLAYORDER=
